{
	"patcher" : 	{
		"fileversion" : 1,
		"appversion" : 		{
			"major" : 9,
			"minor" : 0,
			"revision" : 5,
			"architecture" : "x64",
			"modernui" : 1
		}
,
		"classnamespace" : "box",
		"rect" : [ 84.0, 131.0, 967.0, 636.0 ],
		"openrect" : [ 0.0, 0.0, 330.0, 143.0 ],
		"openinpresentation" : 1,
		"gridsize" : [ 15.0, 15.0 ],
		"boxes" : [ 			{
				"box" : 				{
					"id" : "obj-1",
					"maxclass" : "newobj",
					"numinlets" : 1,
					"numoutlets" : 4,
					"outlettype" : [ "", "", "", "" ],
					"patching_rect" : [ 570.370360851287842, 243.0, 142.0, 22.0 ],
					"restore" : 					{
						"attack slope" : [ 0.0 ],
						"attack time" : [ 0.0 ],
						"decay slope" : [ 0.0 ],
						"decay time" : [ 0.0 ],
						"final level" : [ 0.0 ],
						"initial level" : [ 0.0 ],
						"peak level" : [ 0.0 ],
						"release slope" : [ 0.0 ],
						"release time" : [ 0.0 ],
						"sustain level" : [ 0.0 ]
					}
,
					"text" : "autopattr @autorestore 0",
					"varname" : "u701002542"
				}

			}
, 			{
				"box" : 				{
					"comment" : "",
					"id" : "obj-83",
					"index" : 10,
					"maxclass" : "outlet",
					"numinlets" : 1,
					"numoutlets" : 0,
					"patching_rect" : [ 489.518517792224884, 421.296289265155792, 30.0, 30.0 ]
				}

			}
, 			{
				"box" : 				{
					"comment" : "",
					"id" : "obj-84",
					"index" : 9,
					"maxclass" : "outlet",
					"numinlets" : 1,
					"numoutlets" : 0,
					"patching_rect" : [ 439.81480747461319, 421.296289265155792, 30.0, 30.0 ]
				}

			}
, 			{
				"box" : 				{
					"comment" : "",
					"id" : "obj-79",
					"index" : 8,
					"maxclass" : "outlet",
					"numinlets" : 1,
					"numoutlets" : 0,
					"patching_rect" : [ 390.740734219551086, 421.296289265155792, 30.0, 30.0 ]
				}

			}
, 			{
				"box" : 				{
					"comment" : "",
					"id" : "obj-80",
					"index" : 7,
					"maxclass" : "outlet",
					"numinlets" : 1,
					"numoutlets" : 0,
					"patching_rect" : [ 341.666660964488983, 421.296289265155792, 30.0, 30.0 ]
				}

			}
, 			{
				"box" : 				{
					"comment" : "",
					"id" : "obj-81",
					"index" : 6,
					"maxclass" : "outlet",
					"numinlets" : 1,
					"numoutlets" : 0,
					"patching_rect" : [ 291.66666179895401, 421.296289265155792, 30.0, 30.0 ]
				}

			}
, 			{
				"box" : 				{
					"comment" : "",
					"id" : "obj-82",
					"index" : 5,
					"maxclass" : "outlet",
					"numinlets" : 1,
					"numoutlets" : 0,
					"patching_rect" : [ 241.666662633419037, 421.296289265155792, 30.0, 30.0 ]
				}

			}
, 			{
				"box" : 				{
					"comment" : "",
					"id" : "obj-77",
					"index" : 4,
					"maxclass" : "outlet",
					"numinlets" : 1,
					"numoutlets" : 0,
					"patching_rect" : [ 191.666663467884064, 421.296289265155792, 30.0, 30.0 ]
				}

			}
, 			{
				"box" : 				{
					"comment" : "",
					"id" : "obj-78",
					"index" : 3,
					"maxclass" : "outlet",
					"numinlets" : 1,
					"numoutlets" : 0,
					"patching_rect" : [ 142.59259021282196, 421.296289265155792, 30.0, 30.0 ]
				}

			}
, 			{
				"box" : 				{
					"comment" : "",
					"id" : "obj-76",
					"index" : 2,
					"maxclass" : "outlet",
					"numinlets" : 1,
					"numoutlets" : 0,
					"patching_rect" : [ 92.592591047286987, 421.296289265155792, 30.0, 30.0 ]
				}

			}
, 			{
				"box" : 				{
					"comment" : "",
					"id" : "obj-75",
					"index" : 1,
					"maxclass" : "outlet",
					"numinlets" : 1,
					"numoutlets" : 0,
					"patching_rect" : [ 43.518517792224884, 421.296289265155792, 30.0, 30.0 ]
				}

			}
, 			{
				"box" : 				{
					"attr" : "tethering",
					"id" : "obj-73",
					"maxclass" : "attrui",
					"numinlets" : 1,
					"numoutlets" : 1,
					"outlettype" : [ "" ],
					"parameter_enable" : 0,
					"patching_rect" : [ 570.370360851287842, 87.962961494922638, 108.796747982501984, 22.0 ],
					"text_width" : 86.796747982501984
				}

			}
, 			{
				"box" : 				{
					"attr" : "outputmode",
					"id" : "obj-74",
					"maxclass" : "attrui",
					"numinlets" : 1,
					"numoutlets" : 1,
					"outlettype" : [ "" ],
					"parameter_enable" : 0,
					"patching_rect" : [ 570.370360851287842, 112.037035167217255, 109.0, 22.0 ],
					"text_width" : 87.0
				}

			}
, 			{
				"box" : 				{
					"fontsize" : 9.5,
					"id" : "obj-72",
					"maxclass" : "comment",
					"numinlets" : 1,
					"numoutlets" : 0,
					"patching_rect" : [ 189.814811646938324, 88.888887405395508, 40.0, 17.0 ],
					"presentation" : 1,
					"presentation_rect" : [ 234.797281622886658, 92.0, 40.0, 17.0 ],
					"text" : "release"
				}

			}
, 			{
				"box" : 				{
					"fontsize" : 9.5,
					"id" : "obj-69",
					"maxclass" : "comment",
					"numinlets" : 1,
					"numoutlets" : 0,
					"patching_rect" : [ 140.740738391876221, 88.888887405395508, 39.0, 17.0 ],
					"presentation" : 1,
					"presentation_rect" : [ 188.175663113594055, 92.0, 39.0, 17.0 ],
					"text" : "sustain"
				}

			}
, 			{
				"box" : 				{
					"fontsize" : 9.5,
					"id" : "obj-68",
					"maxclass" : "comment",
					"numinlets" : 1,
					"numoutlets" : 0,
					"patching_rect" : [ 94.444442868232727, 88.888887405395508, 34.0, 17.0 ],
					"presentation" : 1,
					"presentation_rect" : [ 141.216206789016724, 92.0, 34.0, 17.0 ],
					"text" : "decay"
				}

			}
, 			{
				"box" : 				{
					"fontsize" : 9.5,
					"id" : "obj-66",
					"maxclass" : "comment",
					"numinlets" : 1,
					"numoutlets" : 0,
					"patching_rect" : [ 44.444443702697754, 88.888887405395508, 34.0, 17.0 ],
					"presentation" : 1,
					"presentation_rect" : [ 46.959456324577332, 92.0, 34.0, 17.0 ],
					"text" : "attack"
				}

			}
, 			{
				"box" : 				{
					"activeslidercolor" : [ 0.411764705882353, 0.498039215686275, 0.643137254901961, 1.0 ],
					"bordercolor" : [ 0.098039215686275, 0.098039215686275, 0.098039215686275, 0.0 ],
					"id" : "obj-64",
					"maxclass" : "live.numbox",
					"numinlets" : 1,
					"numoutlets" : 2,
					"outlettype" : [ "", "float" ],
					"parameter_enable" : 1,
					"patching_rect" : [ 43.518517792224884, 111.111109256744385, 44.0, 15.0 ],
					"presentation" : 1,
					"presentation_rect" : [ 46.959456324577332, 111.0, 45.0, 15.0 ],
					"saved_attribute_attributes" : 					{
						"activeslidercolor" : 						{
							"expression" : ""
						}
,
						"bordercolor" : 						{
							"expression" : ""
						}
,
						"valueof" : 						{
							"parameter_exponent" : 8.0,
							"parameter_linknames" : 1,
							"parameter_longname" : "attack time",
							"parameter_mmax" : 20000.0,
							"parameter_modmode" : 3,
							"parameter_shortname" : "attack time",
							"parameter_type" : 0,
							"parameter_unitstyle" : 2
						}

					}
,
					"textjustification" : 0,
					"varname" : "attack time"
				}

			}
, 			{
				"box" : 				{
					"activeslidercolor" : [ 0.411764705882353, 0.498039215686275, 0.643137254901961, 1.0 ],
					"bordercolor" : [ 0.098039215686275, 0.098039215686275, 0.098039215686275, 0.0 ],
					"id" : "obj-63",
					"maxclass" : "live.numbox",
					"numinlets" : 1,
					"numoutlets" : 2,
					"outlettype" : [ "", "float" ],
					"parameter_enable" : 1,
					"patching_rect" : [ 92.592591047286987, 111.111109256744385, 44.0, 15.0 ],
					"presentation" : 1,
					"presentation_rect" : [ 141.216206789016724, 111.0, 45.0, 15.0 ],
					"saved_attribute_attributes" : 					{
						"activeslidercolor" : 						{
							"expression" : ""
						}
,
						"bordercolor" : 						{
							"expression" : ""
						}
,
						"valueof" : 						{
							"parameter_exponent" : 8.0,
							"parameter_linknames" : 1,
							"parameter_longname" : "decay time",
							"parameter_mmax" : 20000.0,
							"parameter_modmode" : 3,
							"parameter_shortname" : "decay time",
							"parameter_type" : 0,
							"parameter_unitstyle" : 2
						}

					}
,
					"textjustification" : 0,
					"varname" : "decay time"
				}

			}
, 			{
				"box" : 				{
					"activeslidercolor" : [ 0.411764705882353, 0.498039215686275, 0.643137254901961, 1.0 ],
					"bordercolor" : [ 0.098039215686275, 0.098039215686275, 0.098039215686275, 0.0 ],
					"id" : "obj-62",
					"maxclass" : "live.numbox",
					"numinlets" : 1,
					"numoutlets" : 2,
					"outlettype" : [ "", "float" ],
					"parameter_enable" : 1,
					"patching_rect" : [ 191.666663467884064, 111.111109256744385, 44.0, 15.0 ],
					"presentation" : 1,
					"presentation_rect" : [ 235.135119438171387, 111.0, 45.0, 15.0 ],
					"saved_attribute_attributes" : 					{
						"activeslidercolor" : 						{
							"expression" : ""
						}
,
						"bordercolor" : 						{
							"expression" : ""
						}
,
						"valueof" : 						{
							"parameter_exponent" : 8.0,
							"parameter_linknames" : 1,
							"parameter_longname" : "release time",
							"parameter_mmax" : 20000.0,
							"parameter_modmode" : 3,
							"parameter_shortname" : "release time",
							"parameter_type" : 0,
							"parameter_unitstyle" : 2
						}

					}
,
					"textjustification" : 0,
					"varname" : "release time"
				}

			}
, 			{
				"box" : 				{
					"id" : "obj-61",
					"maxclass" : "comment",
					"numinlets" : 1,
					"numoutlets" : 0,
					"patching_rect" : [ 489.814806640148163, 88.888887405395508, 44.0, 20.0 ],
					"text" : "r.slope"
				}

			}
, 			{
				"box" : 				{
					"id" : "obj-60",
					"maxclass" : "comment",
					"numinlets" : 1,
					"numoutlets" : 0,
					"patching_rect" : [ 438.88888156414032, 88.888887405395508, 47.0, 20.0 ],
					"text" : "d.slope"
				}

			}
, 			{
				"box" : 				{
					"id" : "obj-58",
					"maxclass" : "comment",
					"numinlets" : 1,
					"numoutlets" : 0,
					"patching_rect" : [ 388.888882398605347, 88.888887405395508, 47.0, 20.0 ],
					"text" : "a.slope"
				}

			}
, 			{
				"box" : 				{
					"fontsize" : 9.5,
					"id" : "obj-59",
					"maxclass" : "comment",
					"numinlets" : 1,
					"numoutlets" : 0,
					"patching_rect" : [ 347.222216427326202, 88.888887405395508, 26.0, 17.0 ],
					"presentation" : 1,
					"presentation_rect" : [ 281.756737947463989, 92.0, 26.0, 17.0 ],
					"text" : "final"
				}

			}
, 			{
				"box" : 				{
					"fontsize" : 9.5,
					"id" : "obj-57",
					"maxclass" : "comment",
					"numinlets" : 1,
					"numoutlets" : 0,
					"patching_rect" : [ 295.37036544084549, 88.888887405395508, 29.0, 17.0 ],
					"presentation" : 1,
					"presentation_rect" : [ 93.581074833869934, 92.0, 29.0, 17.0 ],
					"text" : "peak"
				}

			}
, 			{
				"box" : 				{
					"fontsize" : 9.5,
					"id" : "obj-56",
					"maxclass" : "comment",
					"numinlets" : 1,
					"numoutlets" : 0,
					"patching_rect" : [ 245.370366275310516, 88.888887405395508, 30.0, 17.0 ],
					"presentation" : 1,
					"presentation_rect" : [ 0.0, 92.0, 30.0, 17.0 ],
					"text" : "initial"
				}

			}
, 			{
				"box" : 				{
					"id" : "obj-53",
					"maxclass" : "newobj",
					"numinlets" : 2,
					"numoutlets" : 1,
					"outlettype" : [ "float" ],
					"patching_rect" : [ 489.814806640148163, 48.148147344589233, 40.0, 22.0 ],
					"text" : "* 100."
				}

			}
, 			{
				"box" : 				{
					"id" : "obj-54",
					"maxclass" : "newobj",
					"numinlets" : 2,
					"numoutlets" : 1,
					"outlettype" : [ "float" ],
					"patching_rect" : [ 439.81480747461319, 48.148147344589233, 40.0, 22.0 ],
					"text" : "* 100."
				}

			}
, 			{
				"box" : 				{
					"id" : "obj-51",
					"maxclass" : "newobj",
					"numinlets" : 2,
					"numoutlets" : 1,
					"outlettype" : [ "float" ],
					"patching_rect" : [ 390.740734219551086, 48.148147344589233, 40.0, 22.0 ],
					"text" : "* 100."
				}

			}
, 			{
				"box" : 				{
					"id" : "obj-52",
					"maxclass" : "newobj",
					"numinlets" : 2,
					"numoutlets" : 1,
					"outlettype" : [ "float" ],
					"patching_rect" : [ 340.740735054016113, 48.148147344589233, 40.0, 22.0 ],
					"text" : "* 100."
				}

			}
, 			{
				"box" : 				{
					"id" : "obj-50",
					"maxclass" : "newobj",
					"numinlets" : 2,
					"numoutlets" : 1,
					"outlettype" : [ "float" ],
					"patching_rect" : [ 291.66666179895401, 48.148147344589233, 40.0, 22.0 ],
					"text" : "* 100."
				}

			}
, 			{
				"box" : 				{
					"id" : "obj-49",
					"maxclass" : "newobj",
					"numinlets" : 2,
					"numoutlets" : 1,
					"outlettype" : [ "float" ],
					"patching_rect" : [ 241.666662633419037, 48.148147344589233, 40.0, 22.0 ],
					"text" : "* 100."
				}

			}
, 			{
				"box" : 				{
					"id" : "obj-48",
					"maxclass" : "newobj",
					"numinlets" : 2,
					"numoutlets" : 1,
					"outlettype" : [ "float" ],
					"patching_rect" : [ 142.59259021282196, 48.148147344589233, 40.0, 22.0 ],
					"text" : "* 100."
				}

			}
, 			{
				"box" : 				{
					"activeslidercolor" : [ 0.411764705882353, 0.498039215686275, 0.643137254901961, 1.0 ],
					"appearance" : 2,
					"bordercolor" : [ 0.098039215686275, 0.098039215686275, 0.098039215686275, 0.0 ],
					"id" : "obj-47",
					"maxclass" : "live.numbox",
					"numinlets" : 1,
					"numoutlets" : 2,
					"outlettype" : [ "", "float" ],
					"parameter_enable" : 1,
					"patching_rect" : [ 142.59259021282196, 111.111109256744385, 44.0, 15.0 ],
					"presentation" : 1,
					"presentation_rect" : [ 188.175663113594055, 111.0, 45.0, 15.0 ],
					"saved_attribute_attributes" : 					{
						"activeslidercolor" : 						{
							"expression" : ""
						}
,
						"bordercolor" : 						{
							"expression" : ""
						}
,
						"valueof" : 						{
							"parameter_linknames" : 1,
							"parameter_longname" : "sustain level",
							"parameter_mmax" : 100.0,
							"parameter_modmode" : 3,
							"parameter_shortname" : "sustain level",
							"parameter_type" : 0,
							"parameter_unitstyle" : 5
						}

					}
,
					"textjustification" : 0,
					"varname" : "sustain level"
				}

			}
, 			{
				"box" : 				{
					"activeslidercolor" : [ 0.847058823529412, 0.32156862745098, 0.282352941176471, 1.0 ],
					"appearance" : 2,
					"bordercolor" : [ 0.098039215686275, 0.098039215686275, 0.098039215686275, 0.0 ],
					"id" : "obj-45",
					"maxclass" : "live.numbox",
					"numinlets" : 1,
					"numoutlets" : 2,
					"outlettype" : [ "", "float" ],
					"parameter_enable" : 1,
					"patching_rect" : [ 489.814806640148163, 111.111109256744385, 44.0, 15.0 ],
					"presentation" : 1,
					"presentation_rect" : [ 235.135119438171387, 128.0, 45.0, 15.0 ],
					"saved_attribute_attributes" : 					{
						"activeslidercolor" : 						{
							"expression" : ""
						}
,
						"bordercolor" : 						{
							"expression" : ""
						}
,
						"valueof" : 						{
							"parameter_linknames" : 1,
							"parameter_longname" : "release slope",
							"parameter_mmax" : 100.0,
							"parameter_modmode" : 3,
							"parameter_shortname" : "release slope",
							"parameter_type" : 0,
							"parameter_unitstyle" : 5
						}

					}
,
					"textjustification" : 0,
					"varname" : "release slope"
				}

			}
, 			{
				"box" : 				{
					"activeslidercolor" : [ 0.847058823529412, 0.32156862745098, 0.282352941176471, 1.0 ],
					"appearance" : 2,
					"bordercolor" : [ 0.098039215686275, 0.098039215686275, 0.098039215686275, 0.0 ],
					"id" : "obj-46",
					"maxclass" : "live.numbox",
					"numinlets" : 1,
					"numoutlets" : 2,
					"outlettype" : [ "", "float" ],
					"parameter_enable" : 1,
					"patching_rect" : [ 439.81480747461319, 111.111109256744385, 44.0, 15.0 ],
					"presentation" : 1,
					"presentation_rect" : [ 141.216206789016724, 128.0, 45.0, 15.0 ],
					"saved_attribute_attributes" : 					{
						"activeslidercolor" : 						{
							"expression" : ""
						}
,
						"bordercolor" : 						{
							"expression" : ""
						}
,
						"valueof" : 						{
							"parameter_linknames" : 1,
							"parameter_longname" : "decay slope",
							"parameter_mmax" : 100.0,
							"parameter_modmode" : 3,
							"parameter_shortname" : "decay slope",
							"parameter_type" : 0,
							"parameter_unitstyle" : 5
						}

					}
,
					"textjustification" : 0,
					"varname" : "decay slope"
				}

			}
, 			{
				"box" : 				{
					"activeslidercolor" : [ 0.847058823529412, 0.32156862745098, 0.282352941176471, 1.0 ],
					"appearance" : 2,
					"bordercolor" : [ 0.098039215686275, 0.098039215686275, 0.098039215686275, 0.0 ],
					"id" : "obj-43",
					"maxclass" : "live.numbox",
					"numinlets" : 1,
					"numoutlets" : 2,
					"outlettype" : [ "", "float" ],
					"parameter_enable" : 1,
					"patching_rect" : [ 390.740734219551086, 111.111109256744385, 44.0, 15.0 ],
					"presentation" : 1,
					"presentation_rect" : [ 46.959456324577332, 128.0, 45.0, 15.0 ],
					"saved_attribute_attributes" : 					{
						"activeslidercolor" : 						{
							"expression" : ""
						}
,
						"bordercolor" : 						{
							"expression" : ""
						}
,
						"valueof" : 						{
							"parameter_linknames" : 1,
							"parameter_longname" : "attack slope",
							"parameter_mmax" : 100.0,
							"parameter_modmode" : 3,
							"parameter_shortname" : "attack slope",
							"parameter_type" : 0,
							"parameter_unitstyle" : 5
						}

					}
,
					"textjustification" : 0,
					"varname" : "attack slope"
				}

			}
, 			{
				"box" : 				{
					"activeslidercolor" : [ 0.411764705882353, 0.498039215686275, 0.643137254901961, 1.0 ],
					"appearance" : 2,
					"bordercolor" : [ 0.098039215686275, 0.098039215686275, 0.098039215686275, 0.0 ],
					"id" : "obj-44",
					"maxclass" : "live.numbox",
					"numinlets" : 1,
					"numoutlets" : 2,
					"outlettype" : [ "", "float" ],
					"parameter_enable" : 1,
					"patching_rect" : [ 340.740735054016113, 111.111109256744385, 44.0, 15.0 ],
					"presentation" : 1,
					"presentation_rect" : [ 281.756737947463989, 111.0, 45.0, 15.0 ],
					"saved_attribute_attributes" : 					{
						"activeslidercolor" : 						{
							"expression" : ""
						}
,
						"bordercolor" : 						{
							"expression" : ""
						}
,
						"valueof" : 						{
							"parameter_linknames" : 1,
							"parameter_longname" : "final level",
							"parameter_mmax" : 100.0,
							"parameter_modmode" : 3,
							"parameter_shortname" : "final level",
							"parameter_type" : 0,
							"parameter_unitstyle" : 5
						}

					}
,
					"textjustification" : 0,
					"varname" : "final level"
				}

			}
, 			{
				"box" : 				{
					"activeslidercolor" : [ 0.411764705882353, 0.498039215686275, 0.643137254901961, 1.0 ],
					"appearance" : 2,
					"bordercolor" : [ 0.098039215686275, 0.098039215686275, 0.098039215686275, 0.0 ],
					"id" : "obj-42",
					"maxclass" : "live.numbox",
					"numinlets" : 1,
					"numoutlets" : 2,
					"outlettype" : [ "", "float" ],
					"parameter_enable" : 1,
					"patching_rect" : [ 291.66666179895401, 111.111109256744385, 44.0, 15.0 ],
					"presentation" : 1,
					"presentation_rect" : [ 93.581074833869934, 111.0, 45.0, 15.0 ],
					"saved_attribute_attributes" : 					{
						"activeslidercolor" : 						{
							"expression" : ""
						}
,
						"bordercolor" : 						{
							"expression" : ""
						}
,
						"valueof" : 						{
							"parameter_linknames" : 1,
							"parameter_longname" : "peak level",
							"parameter_mmax" : 100.0,
							"parameter_modmode" : 3,
							"parameter_shortname" : "peak level",
							"parameter_type" : 0,
							"parameter_unitstyle" : 5
						}

					}
,
					"textjustification" : 0,
					"varname" : "peak level"
				}

			}
, 			{
				"box" : 				{
					"activeslidercolor" : [ 0.411764705882353, 0.498039215686275, 0.643137254901961, 1.0 ],
					"appearance" : 2,
					"bordercolor" : [ 0.098039215686275, 0.098039215686275, 0.098039215686275, 0.0 ],
					"id" : "obj-40",
					"maxclass" : "live.numbox",
					"numinlets" : 1,
					"numoutlets" : 2,
					"outlettype" : [ "", "float" ],
					"parameter_enable" : 1,
					"patching_rect" : [ 241.666662633419037, 111.111109256744385, 44.0, 15.0 ],
					"presentation" : 1,
					"presentation_rect" : [ 0.0, 111.0, 45.0, 15.0 ],
					"saved_attribute_attributes" : 					{
						"activeslidercolor" : 						{
							"expression" : ""
						}
,
						"bordercolor" : 						{
							"expression" : ""
						}
,
						"valueof" : 						{
							"parameter_linknames" : 1,
							"parameter_longname" : "initial level",
							"parameter_mmax" : 100.0,
							"parameter_modmode" : 3,
							"parameter_shortname" : "initial level",
							"parameter_type" : 0,
							"parameter_unitstyle" : 5
						}

					}
,
					"textjustification" : 0,
					"varname" : "initial level"
				}

			}
, 			{
				"box" : 				{
					"id" : "obj-36",
					"maxclass" : "newobj",
					"numinlets" : 2,
					"numoutlets" : 1,
					"outlettype" : [ "float" ],
					"patching_rect" : [ 489.814806640148163, 132.407405197620392, 39.0, 22.0 ],
					"text" : "/ 100."
				}

			}
, 			{
				"box" : 				{
					"id" : "obj-37",
					"maxclass" : "newobj",
					"numinlets" : 2,
					"numoutlets" : 1,
					"outlettype" : [ "float" ],
					"patching_rect" : [ 439.81480747461319, 132.407405197620392, 39.0, 22.0 ],
					"text" : "/ 100."
				}

			}
, 			{
				"box" : 				{
					"id" : "obj-39",
					"maxclass" : "newobj",
					"numinlets" : 2,
					"numoutlets" : 1,
					"outlettype" : [ "float" ],
					"patching_rect" : [ 390.740734219551086, 132.407405197620392, 39.0, 22.0 ],
					"text" : "/ 100."
				}

			}
, 			{
				"box" : 				{
					"id" : "obj-25",
					"maxclass" : "newobj",
					"numinlets" : 2,
					"numoutlets" : 1,
					"outlettype" : [ "float" ],
					"patching_rect" : [ 340.740735054016113, 132.407405197620392, 39.0, 22.0 ],
					"text" : "/ 100."
				}

			}
, 			{
				"box" : 				{
					"id" : "obj-34",
					"maxclass" : "newobj",
					"numinlets" : 2,
					"numoutlets" : 1,
					"outlettype" : [ "float" ],
					"patching_rect" : [ 290.74073588848114, 132.407405197620392, 39.0, 22.0 ],
					"text" : "/ 100."
				}

			}
, 			{
				"box" : 				{
					"id" : "obj-23",
					"maxclass" : "newobj",
					"numinlets" : 2,
					"numoutlets" : 1,
					"outlettype" : [ "float" ],
					"patching_rect" : [ 241.666662633419037, 132.407405197620392, 39.0, 22.0 ],
					"text" : "/ 100."
				}

			}
, 			{
				"box" : 				{
					"id" : "obj-17",
					"maxclass" : "newobj",
					"numinlets" : 2,
					"numoutlets" : 1,
					"outlettype" : [ "float" ],
					"patching_rect" : [ 142.59259021282196, 132.407405197620392, 39.0, 22.0 ],
					"text" : "/ 100."
				}

			}
, 			{
				"box" : 				{
					"attack_time" : 425.066047401133403,
					"decay_slope" : 0.0,
					"decay_time" : 85.457366409395746,
					"final" : 0.011111111111111,
					"id" : "obj-16",
					"initial" : 0.011111111111111,
					"maxclass" : "live.adsrui",
					"numinlets" : 10,
					"numoutlets" : 10,
					"outlettype" : [ "", "", "", "", "", "", "", "", "", "" ],
					"outputmode" : 0,
					"patching_rect" : [ 43.814806640148163, 173.0, 465.0, 206.666659832000732 ],
					"presentation" : 1,
					"presentation_rect" : [ 0.0, 0.0, 330.0, 90.0 ],
					"release_slope" : 0.0,
					"release_time" : 286.313826214056064,
					"sustain" : 0.488888888888889,
					"tethering" : 0
				}

			}
 ],
		"lines" : [ 			{
				"patchline" : 				{
					"destination" : [ "obj-48", 0 ],
					"midpoints" : [ 152.425917751259277, 389.888891994953156, 545.310472969439616, 389.888891994953156, 545.310472969439616, 33.024039129260927, 152.09259021282196, 33.024039129260927 ],
					"order" : 1,
					"source" : [ "obj-16", 2 ]
				}

			}
, 			{
				"patchline" : 				{
					"destination" : [ "obj-49", 0 ],
					"midpoints" : [ 251.537028862370391, 389.888891994953156, 545.342868542583346, 389.888891994953156, 545.342868542583346, 32.888891994953156, 251.166662633419037, 32.888891994953156 ],
					"order" : 1,
					"source" : [ "obj-16", 4 ]
				}

			}
, 			{
				"patchline" : 				{
					"destination" : [ "obj-50", 0 ],
					"midpoints" : [ 301.092584417925934, 389.888891994953156, 545.370363030168846, 389.888891994953156, 545.370363030168846, 32.888891994953156, 301.16666179895401, 32.888891994953156 ],
					"order" : 1,
					"source" : [ "obj-16", 5 ]
				}

			}
, 			{
				"patchline" : 				{
					"destination" : [ "obj-51", 0 ],
					"midpoints" : [ 400.203695529037077, 389.888891994953156, 545.370363030168846, 389.888891994953156, 545.370363030168846, 32.888891994953156, 400.240734219551086, 32.888891994953156 ],
					"order" : 1,
					"source" : [ "obj-16", 7 ]
				}

			}
, 			{
				"patchline" : 				{
					"destination" : [ "obj-52", 0 ],
					"midpoints" : [ 350.648139973481477, 389.888891994953156, 545.370363030168846, 389.888891994953156, 545.370363030168846, 32.888891994953156, 350.240735054016113, 32.888891994953156 ],
					"order" : 1,
					"source" : [ "obj-16", 6 ]
				}

			}
, 			{
				"patchline" : 				{
					"destination" : [ "obj-53", 0 ],
					"midpoints" : [ 499.314806640148163, 389.635962307453156, 545.370363030168846, 389.635962307453156, 545.370363030168846, 32.859595119953156, 499.314806640148163, 32.859595119953156 ],
					"order" : 1,
					"source" : [ "obj-16", 9 ]
				}

			}
, 			{
				"patchline" : 				{
					"destination" : [ "obj-54", 0 ],
					"midpoints" : [ 449.75925108459262, 389.888891994953156, 545.370363030168846, 389.888891994953156, 545.370363030168846, 32.888891994953156, 449.31480747461319, 32.888891994953156 ],
					"order" : 1,
					"source" : [ "obj-16", 8 ]
				}

			}
, 			{
				"patchline" : 				{
					"destination" : [ "obj-62", 0 ],
					"midpoints" : [ 201.98147330681482, 389.735239326953888, 545.40276771138042, 389.735239326953888, 545.40276771138042, 32.972157806856558, 201.166663467884064, 32.972157806856558 ],
					"order" : 1,
					"source" : [ "obj-16", 3 ]
				}

			}
, 			{
				"patchline" : 				{
					"destination" : [ "obj-63", 0 ],
					"midpoints" : [ 102.87036219570372, 389.598520576953888, 545.359990286511675, 389.598520576953888, 545.359990286511675, 32.966556637780741, 102.092591047286987, 32.966556637780741 ],
					"order" : 1,
					"source" : [ "obj-16", 1 ]
				}

			}
, 			{
				"patchline" : 				{
					"destination" : [ "obj-64", 0 ],
					"midpoints" : [ 53.314806640148163, 389.778540432453156, 545.362287107470365, 389.778540432453156, 545.362287107470365, 32.953870860510506, 53.018517792224884, 32.953870860510506 ],
					"order" : 1,
					"source" : [ "obj-16", 0 ]
				}

			}
, 			{
				"patchline" : 				{
					"destination" : [ "obj-75", 0 ],
					"order" : 0,
					"source" : [ "obj-16", 0 ]
				}

			}
, 			{
				"patchline" : 				{
					"destination" : [ "obj-76", 0 ],
					"order" : 0,
					"source" : [ "obj-16", 1 ]
				}

			}
, 			{
				"patchline" : 				{
					"destination" : [ "obj-77", 0 ],
					"order" : 0,
					"source" : [ "obj-16", 3 ]
				}

			}
, 			{
				"patchline" : 				{
					"destination" : [ "obj-78", 0 ],
					"order" : 0,
					"source" : [ "obj-16", 2 ]
				}

			}
, 			{
				"patchline" : 				{
					"destination" : [ "obj-79", 0 ],
					"order" : 0,
					"source" : [ "obj-16", 7 ]
				}

			}
, 			{
				"patchline" : 				{
					"destination" : [ "obj-80", 0 ],
					"order" : 0,
					"source" : [ "obj-16", 6 ]
				}

			}
, 			{
				"patchline" : 				{
					"destination" : [ "obj-81", 0 ],
					"order" : 0,
					"source" : [ "obj-16", 5 ]
				}

			}
, 			{
				"patchline" : 				{
					"destination" : [ "obj-82", 0 ],
					"order" : 0,
					"source" : [ "obj-16", 4 ]
				}

			}
, 			{
				"patchline" : 				{
					"destination" : [ "obj-83", 0 ],
					"order" : 0,
					"source" : [ "obj-16", 9 ]
				}

			}
, 			{
				"patchline" : 				{
					"destination" : [ "obj-84", 0 ],
					"order" : 0,
					"source" : [ "obj-16", 8 ]
				}

			}
, 			{
				"patchline" : 				{
					"destination" : [ "obj-16", 2 ],
					"source" : [ "obj-17", 0 ]
				}

			}
, 			{
				"patchline" : 				{
					"destination" : [ "obj-16", 4 ],
					"source" : [ "obj-23", 0 ]
				}

			}
, 			{
				"patchline" : 				{
					"destination" : [ "obj-16", 6 ],
					"source" : [ "obj-25", 0 ]
				}

			}
, 			{
				"patchline" : 				{
					"destination" : [ "obj-16", 5 ],
					"source" : [ "obj-34", 0 ]
				}

			}
, 			{
				"patchline" : 				{
					"destination" : [ "obj-16", 9 ],
					"source" : [ "obj-36", 0 ]
				}

			}
, 			{
				"patchline" : 				{
					"destination" : [ "obj-16", 8 ],
					"source" : [ "obj-37", 0 ]
				}

			}
, 			{
				"patchline" : 				{
					"destination" : [ "obj-16", 7 ],
					"source" : [ "obj-39", 0 ]
				}

			}
, 			{
				"patchline" : 				{
					"destination" : [ "obj-23", 0 ],
					"source" : [ "obj-40", 0 ]
				}

			}
, 			{
				"patchline" : 				{
					"destination" : [ "obj-34", 0 ],
					"source" : [ "obj-42", 0 ]
				}

			}
, 			{
				"patchline" : 				{
					"destination" : [ "obj-39", 0 ],
					"source" : [ "obj-43", 0 ]
				}

			}
, 			{
				"patchline" : 				{
					"destination" : [ "obj-25", 0 ],
					"source" : [ "obj-44", 0 ]
				}

			}
, 			{
				"patchline" : 				{
					"destination" : [ "obj-36", 0 ],
					"source" : [ "obj-45", 0 ]
				}

			}
, 			{
				"patchline" : 				{
					"destination" : [ "obj-37", 0 ],
					"source" : [ "obj-46", 0 ]
				}

			}
, 			{
				"patchline" : 				{
					"destination" : [ "obj-17", 0 ],
					"source" : [ "obj-47", 0 ]
				}

			}
, 			{
				"patchline" : 				{
					"destination" : [ "obj-47", 0 ],
					"source" : [ "obj-48", 0 ]
				}

			}
, 			{
				"patchline" : 				{
					"destination" : [ "obj-40", 0 ],
					"source" : [ "obj-49", 0 ]
				}

			}
, 			{
				"patchline" : 				{
					"destination" : [ "obj-42", 0 ],
					"source" : [ "obj-50", 0 ]
				}

			}
, 			{
				"patchline" : 				{
					"destination" : [ "obj-43", 0 ],
					"source" : [ "obj-51", 0 ]
				}

			}
, 			{
				"patchline" : 				{
					"destination" : [ "obj-44", 0 ],
					"source" : [ "obj-52", 0 ]
				}

			}
, 			{
				"patchline" : 				{
					"destination" : [ "obj-45", 0 ],
					"source" : [ "obj-53", 0 ]
				}

			}
, 			{
				"patchline" : 				{
					"destination" : [ "obj-46", 0 ],
					"source" : [ "obj-54", 0 ]
				}

			}
, 			{
				"patchline" : 				{
					"destination" : [ "obj-16", 3 ],
					"source" : [ "obj-62", 0 ]
				}

			}
, 			{
				"patchline" : 				{
					"destination" : [ "obj-16", 1 ],
					"source" : [ "obj-63", 0 ]
				}

			}
, 			{
				"patchline" : 				{
					"destination" : [ "obj-16", 0 ],
					"source" : [ "obj-64", 0 ]
				}

			}
, 			{
				"patchline" : 				{
					"destination" : [ "obj-16", 9 ],
					"midpoints" : [ 579.870360851287842, 153.18726782000158, 499.314806640148163, 153.18726782000158 ],
					"source" : [ "obj-73", 0 ]
				}

			}
, 			{
				"patchline" : 				{
					"destination" : [ "obj-16", 9 ],
					"midpoints" : [ 579.870360851287842, 153.226103603839874, 499.314806640148163, 153.226103603839874 ],
					"source" : [ "obj-74", 0 ]
				}

			}
 ],
		"originid" : "pat-67"
	}

}
